<svg version="1.2" xmlns="http://www.w3.org/2000/svg" viewBox="0 0 599 152" width="599" height="152">
	<style>
		.s0 { fill: #ffffff } 
		.s1 { fill: #b0f45a } 
	</style>
	<path id="Hey" class="s0" aria-label="Hey"  d="m67.8 113h13.7l18.4-104.6h-13.6l-8.1 46.2h-53.3l8.3-46.2h-13.7l-18.6 104.6h13.7l8.5-47.7h53.1zm84.8-72c14.1 0 24.5 8.8 21.5 25.7h-52.1c4.2-16.6 17.1-25.7 30.6-25.7zm30.2 46.7h-14.7c-4.5 8.8-13.4 15.1-25.7 15.1-14.2 0-24.3-9.5-22.2-26.3h65.7c0.9-2.8 1.5-5.2 2-8.1 3.9-22.2-8.9-39-32.7-39-23.9 0-43.5 16.4-48.2 42.3-4.6 26.1 9.9 42.6 33.3 42.6 20.4 0 35.6-11.6 42.5-26.6zm38.7 24.4l-23.3 39.6h14.3l70.8-120.9h-14.2l-37.3 66.3-13.9-66.3h-15.2z"/>
	<path id="Dev" class="s1" aria-label="Dev"  d="m337 0.7h-42.1v112.3h42.1c35.8 0 58.9-22.9 58.9-56.2 0-33.4-23.1-56.1-58.9-56.1zm-14.7 88.6v-65.3h12.9c20.7 0 32.8 12.2 32.8 32.8 0 20.7-12.1 32.5-32.8 32.5zm128-44.9c9.2 0 16.8 5.6 16.8 15.3h-34.2c1.6-9.9 8.5-15.3 17.4-15.3zm42.8 39h-29.2c-2.2 4.8-6.5 8.6-14.2 8.6-8.8 0-16-5.4-17-17.1h62c0.3-2.7 0.4-5.4 0.4-8 0-27.2-18.4-44.5-44.4-44.5-26.6 0-45.2 17.6-45.2 46 0 28.3 18.9 45.9 45.2 45.9 22.2 0 38-13.5 42.4-30.9zm8.4-59.7l31.7 89.3h33.7l31.7-89.3h-29.1l-19.4 63.7-19.3-63.7z"/>
</svg>